<?xml version="1.0" standalone="no"?>
<!DOCTYPE svg PUBLIC "-//W3C//DTD SVG 20010904//EN"
 "http://www.w3.org/TR/2001/REC-SVG-20010904/DTD/svg10.dtd">
<svg version="1.0" xmlns="http://www.w3.org/2000/svg"
 width="578.000000pt" height="578.000000pt" viewBox="0 0 578.000000 578.000000"
 preserveAspectRatio="xMidYMid meet">
<metadata>
Created by potrace 1.11, written by Peter Selinger 2001-2013
</metadata>
<g transform="translate(0.000000,578.000000) scale(0.100000,-0.100000)"
fill="#000000" stroke="none">
<path d="M2103 5709 c-74 -19 -174 -65 -237 -109 -146 -100 -235 -286 -236
-487 l0 -71 -43 -25 c-139 -82 -355 -256 -493 -399 -350 -361 -601 -861 -670
-1337 -4 -25 -8 -55 -10 -66 -25 -130 -24 -545 1 -674 2 -11 7 -41 10 -68 11
-77 52 -244 86 -350 202 -635 659 -1170 1257 -1473 102 -51 294 -131 346 -144
28 -7 29 -8 22 -59 -9 -75 -11 -86 -19 -93 -3 -3 -49 -24 -102 -45 -71 -29
-111 -39 -151 -39 -42 0 -70 -8 -124 -35 -46 -23 -90 -37 -128 -41 -101 -9
-110 -12 -130 -32 -12 -12 -40 -26 -64 -33 -131 -35 -133 -54 -8 -58 36 -1 81
-4 100 -6 137 -14 507 -20 1220 -17 454 2 1076 4 1382 5 307 1 558 5 558 9 0
3 -15 21 -32 39 -42 41 -114 74 -206 94 -72 15 -96 18 -262 30 -68 5 -89 11
-102 27 -10 11 -18 26 -18 34 0 34 -33 91 -62 109 -27 16 -55 18 -192 19 -150
1 -164 3 -206 25 -51 27 -55 23 65 61 192 61 405 161 583 274 55 35 107 69
114 75 7 6 52 42 100 80 309 243 561 567 722 927 73 164 153 399 138 408 -4 2
-32 7 -63 10 -31 4 -65 8 -75 10 -11 2 -48 7 -84 11 -36 4 -72 9 -80 10 -8 2
-44 6 -80 9 l-65 7 -33 -104 c-38 -120 -116 -286 -191 -406 -283 -456 -734
-790 -1236 -914 -176 -44 -173 -44 -191 -2 -20 50 -23 102 -8 153 11 38 10 47
-6 75 -14 25 -18 56 -19 137 -2 95 -4 107 -24 122 -52 41 -235 57 -377 33 -46
-8 -132 -33 -147 -43 -28 -18 -37 -159 -18 -282 9 -58 14 -210 8 -228 -6 -14
-22 -13 -151 14 -42 8 -80 19 -84 23 -4 3 -4 20 1 36 5 20 3 45 -7 73 -9 28
-12 62 -9 93 3 27 3 48 -1 48 -35 -5 -54 4 -63 30 -8 22 -15 27 -32 24 -12 -2
-31 2 -41 10 -36 26 -21 163 15 141 4 -2 21 -6 39 -8 22 -2 33 2 40 15 14 26
2 47 -28 51 -22 2 -27 8 -26 28 12 195 20 387 29 720 13 453 17 563 30 738 5
68 3 87 -9 101 -23 25 -46 87 -48 127 -2 41 24 72 66 80 52 9 63 -1 65 -64 1
-32 3 -71 5 -87 2 -17 7 -75 11 -130 7 -105 8 -119 19 -225 10 -89 24 -191 32
-235 3 -11 7 -36 10 -55 3 -19 7 -43 10 -52 3 -9 -3 -32 -12 -50 -21 -39 -28
-204 -13 -308 5 -36 12 -110 15 -165 4 -55 11 -105 18 -112 15 -16 73 -22 113
-12 28 8 32 14 38 57 3 26 7 80 7 121 1 60 -3 77 -21 99 -43 54 -54 112 -55
287 0 101 11 302 18 314 2 3 7 38 10 77 4 39 8 80 10 90 4 23 17 125 21 174 2
19 7 94 10 165 7 136 10 149 26 139 6 -3 25 -8 42 -11 18 -3 92 -20 166 -39
73 -19 136 -34 140 -34 4 0 7 10 9 23 1 12 15 62 32 111 16 49 33 110 36 136
5 41 3 50 -12 58 -39 20 -116 42 -240 67 -182 37 -184 37 -185 94 -1 25 -2 57
-4 71 -2 14 -6 70 -10 125 l-6 100 63 46 c65 48 113 69 156 69 24 0 24 1 17
57 -12 99 -63 203 -100 203 -21 0 -54 -20 -90 -53 -11 -10 -40 -30 -63 -44
-34 -20 -46 -23 -52 -13 -13 22 -22 119 -21 225 6 294 2 265 46 320 41 51 86
102 140 159 l30 31 123 0 c137 0 127 -7 137 85 3 30 8 62 10 70 2 8 7 40 10
70 3 30 8 62 10 70 2 8 7 40 10 70 4 30 9 58 11 62 10 15 -27 20 -156 22
l-130 2 -25 34 c-175 237 -437 350 -672 289z m-315 -1145 c2 -68 11 -74 111
-74 124 0 131 -3 131 -55 0 -44 -21 -81 -67 -118 -61 -49 -48 -92 24 -84 51 5
58 -2 54 -58 -3 -48 -8 -58 -24 -48 -42 26 -76 -6 -59 -57 9 -25 7 -29 -16
-40 -15 -6 -64 -39 -108 -72 -64 -47 -81 -65 -79 -82 2 -11 6 -48 9 -81 3 -33
8 -69 10 -80 2 -12 7 -48 11 -80 4 -33 10 -69 12 -80 3 -11 7 -89 8 -173 3
-122 7 -158 20 -178 17 -27 60 -49 110 -57 77 -13 85 -18 85 -51 0 -17 -7 -42
-16 -55 -13 -18 -16 -45 -15 -124 6 -326 9 -406 17 -418 5 -8 10 -84 11 -169
1 -85 5 -225 8 -310 3 -85 5 -216 4 -290 0 -80 5 -150 12 -172 26 -79 -9 -139
-124 -218 -59 -40 -107 -97 -107 -129 0 -23 64 -43 154 -47 50 -3 107 -9 127
-14 l36 -10 0 -79 c1 -91 12 -88 -110 -33 -354 161 -704 486 -906 842 -104
184 -186 398 -227 595 -48 233 -54 536 -14 755 5 30 12 70 15 89 3 19 8 37 10
41 2 3 6 17 8 31 18 95 88 282 158 422 152 302 396 584 664 766 33 22 61 41
61 41 1 0 2 -21 2 -46z m686 -174 c-8 -154 -6 -228 7 -251 15 -29 11 -36 -35
-58 -64 -32 -83 -33 -113 -7 -36 31 -37 71 -2 250 31 164 48 203 99 228 l35
18 8 -28 c4 -15 5 -83 1 -152z m71 -239 c-3 -6 -11 -8 -17 -5 -6 4 -5 9 3 15
16 10 23 4 14 -10z m91 -401 c3 -41 6 -92 8 -113 3 -32 -1 -40 -18 -46 -48
-18 -54 -7 -55 102 -1 56 -3 120 -5 142 -3 32 0 44 18 57 21 17 21 16 34 -25
7 -23 15 -76 18 -117z m-662 68 c3 -13 5 -39 4 -58 0 -19 3 -82 8 -140 13
-163 10 -309 -8 -351 -18 -41 -69 -67 -87 -45 -28 33 -33 80 -35 291 -3 233 3
279 36 308 30 25 76 23 82 -5z m526 -15 c7 -16 14 -61 16 -101 2 -64 0 -74
-19 -87 -67 -47 -133 37 -95 119 12 28 40 41 76 37 25 -3 30 14 6 23 -9 3 -29
6 -45 6 -28 0 -37 9 -22 23 3 4 21 7 38 7 25 0 35 -6 45 -27z m122 -574 c10
-6 17 -13 14 -17 -2 -4 -7 -65 -11 -137 -3 -71 -8 -148 -10 -170 -2 -22 -6
-76 -10 -120 -3 -44 -8 -91 -10 -105 -2 -14 -6 -47 -10 -75 -8 -66 -14 -105
-20 -135 -3 -14 -7 -36 -10 -50 -15 -79 -16 -83 -31 -68 -15 15 -18 27 -29
105 -4 26 -8 59 -10 73 -6 37 -14 134 -20 220 -3 41 -7 102 -10 135 -3 33 -7
92 -10 130 -3 39 -8 95 -11 125 l-5 56 67 20 c80 24 101 26 126 13z m-45
-1161 c-3 -7 -5 -2 -5 12 0 14 2 19 5 13 2 -7 2 -19 0 -25z m-520 -715 c5 -10
8 -31 7 -48 -4 -110 -3 -105 -27 -105 -13 0 -47 12 -74 28 -48 26 -50 29 -39
50 11 20 100 89 118 91 4 1 11 -7 15 -16z m63 -45 c-1 -28 -2 -30 -11 -15 -6
10 -8 25 -5 33 9 24 16 16 16 -18z m113 -258 c-3 -92 -20 -95 -22 -5 -2 60 1
76 11 73 9 -4 12 -23 11 -68z"/>
<path d="M3523 5261 c-36 -23 -61 -57 -68 -92 -11 -57 28 -110 134 -183 47
-31 51 -59 10 -64 -30 -4 -81 33 -77 55 2 11 -16 22 -64 39 l-68 23 0 -35 c0
-79 51 -142 141 -173 84 -29 159 -21 207 23 l23 20 -5 -31 c-7 -39 16 -95 50
-122 33 -26 96 -43 127 -36 21 6 24 4 20 -17 -3 -19 5 -28 51 -52 l55 -30 -32
-38 c-18 -22 -42 -52 -54 -67 l-23 -27 57 -48 57 -47 25 29 c15 17 44 51 65
77 l39 47 12 -37 c28 -80 117 -112 206 -74 55 24 128 97 161 159 56 109 1 236
-107 244 -12 0 -20 8 -20 20 0 10 -22 37 -48 60 l-49 41 -30 -35 c-17 -19 -42
-48 -57 -65 -15 -16 -58 -67 -95 -112 -72 -88 -90 -104 -58 -50 39 64 162 287
164 298 3 12 -98 79 -117 79 -6 0 -21 -21 -35 -47 -14 -27 -44 -81 -67 -121
-24 -40 -43 -77 -43 -82 0 -16 -39 -21 -67 -8 -16 7 -29 23 -31 35 -2 12 27
74 68 147 39 69 68 130 65 136 -7 11 -104 64 -118 65 -4 0 -41 -61 -82 -135
-75 -135 -75 -135 -75 -91 0 57 -31 99 -106 141 -76 44 -91 90 -29 90 29 0 44
-13 48 -39 3 -19 16 -28 70 -46 37 -12 69 -20 72 -17 10 10 5 72 -7 95 -52 92
-217 147 -295 98z m923 -577 c4 -14 1 -38 -6 -55 -15 -35 -92 -106 -115 -106
-9 0 -27 13 -40 29 -29 35 -28 40 44 120 49 54 53 56 81 46 19 -6 32 -19 36
-34z"/>
<path d="M3223 5075 c-70 -30 -63 -140 12 -165 64 -21 120 6 131 66 7 36 -18
90 -46 99 -40 12 -69 12 -97 0z"/>
<path d="M4568 4496 c-188 -153 -184 -150 -265 -214 l-71 -56 18 -26 c10 -14
32 -40 48 -59 l29 -35 76 63 c43 34 77 56 78 49 4 -80 66 -140 145 -141 119
-1 258 111 279 225 12 66 -54 168 -109 168 -12 0 -15 6 -11 23 4 16 -6 34 -37
68 l-43 47 -137 -112z m186 -127 c23 -33 3 -68 -68 -120 -48 -36 -79 -37 -105
-3 -27 35 -18 52 58 113 68 54 83 55 115 10z"/>
<path d="M4888 4161 c-137 -70 -253 -132 -259 -138 -14 -14 84 -205 129 -250
95 -95 229 -105 362 -27 107 62 157 153 147 264 -4 44 -19 85 -60 166 -30 59
-58 109 -63 110 -5 1 -120 -55 -256 -125z m248 -177 c-9 -43 -71 -97 -143
-124 -77 -29 -107 -26 -148 13 -59 56 -57 60 110 146 l150 77 18 -39 c13 -27
17 -50 13 -73z"/>
<path d="M5040 3688 c-148 -38 -211 -142 -172 -284 17 -59 74 -121 125 -135
23 -6 48 -13 56 -16 9 -2 -1 -12 -25 -24 -22 -10 -50 -33 -63 -49 -42 -57 -43
-147 -3 -192 14 -16 13 -18 -7 -18 -12 0 -33 11 -46 25 -29 28 -34 89 -10 134
14 28 14 28 -34 55 l-49 26 -16 -24 c-37 -58 -43 -173 -11 -249 32 -78 112
-124 196 -114 22 2 39 3 39 2 0 -1 -17 -20 -39 -43 -27 -28 -42 -56 -52 -94
-36 -150 32 -267 144 -248 60 11 88 43 127 152 28 76 64 89 75 25 5 -26 -19
-62 -35 -52 -14 8 -18 -6 -25 -82 l-6 -71 33 4 c74 11 127 85 135 188 9 110
-39 183 -126 192 -69 6 -107 -32 -171 -177 -16 -37 -37 -44 -54 -17 -14 23 3
70 32 83 17 7 24 21 29 60 4 27 6 55 5 62 -2 6 1 14 6 17 9 5 155 19 268 24
19 1 33 6 30 10 -3 5 -6 34 -7 66 -2 39 -7 60 -18 66 -12 6 -13 11 -3 22 21
26 25 88 7 134 -28 73 -100 116 -195 116 l-35 0 41 18 c80 35 134 111 134 191
0 47 -30 129 -61 164 -46 52 -136 74 -219 53z m132 -152 c52 -39 13 -107 -74
-126 -67 -14 -74 -13 -98 12 -41 44 -18 91 58 115 49 15 93 15 114 -1z m76
-449 c25 -23 29 -68 9 -86 -8 -6 -52 -13 -100 -16 -78 -5 -87 -4 -96 14 -28
52 -3 95 64 109 54 11 96 4 123 -21z"/>
</g>
</svg>
