<?xml version="1.0" encoding="utf-8"?>
<!-- Generator: Adobe Illustrator 15.1.0, SVG Export Plug-In . SVG Version: 6.00 Build 0)  -->
<!DOCTYPE svg PUBLIC "-//W3C//DTD SVG 1.1//EN" "http://www.w3.org/Graphics/SVG/1.1/DTD/svg11.dtd">
<svg version="1.1" id="Layer_1" xmlns="http://www.w3.org/2000/svg" xmlns:xlink="http://www.w3.org/1999/xlink" x="0px" y="0px"
     width="210px" height="237.346px" viewBox="0 0 210 237.346" enable-background="new 0 0 210 237.346" xml:space="preserve">
<path d="M152.393,224.696c-1.906-1.895-0.988-4.158-2.639-5.727c-3.078-2.957-8.268-0.654-13.211-1.326
    c-5.076-0.693-6.756-3.893-9.682-5.277c0.285-4.691-4.107-4.691-6.154-7.055c-1.703-5.074-5.506-9.479-2.641-14.963
    c-2.641-2.363-1.174-7.379-1.762-10.986c-4.346-3.891-17.299-2.488-22.006,0c-2.223,5.93,0.762,12.902,0,19.793
    c-0.501,4.547-4.13,8.826-3.079,13.637c-1.886,0.063-4.505,1.1-6.148,0c0.849-6.482-2.106-12.129,0.011-17.162
    c-0.724-2.449-1.906-5.199-0.418-7.482c-2.404,0.51-3.108-0.572-3.392-2.201c-1.774,0.162-3.342,0-3.342-1.303v-4.404
    c1.322-1.467,4.535,1.426,4.666-1.326c0.643-2.121-2.679-0.408-2.343-2.201c1.477-22.037,0.917-41.523,2.619-62.061
    c-2.649-2.088-5.127-10.221,2.631-8.804c0.917,12.005,1.458,24.366,3.954,34.763c-0.796,0.939-1.06,1.346-1.325,2.648
    c-1.296,6.586,1.161,14.984,0.886,21.568c0.929,1.305,5.229,1.305,6.158,0c0.357-2.629,1.17-7.439,0-10.131
    c-0.481-1.1-1.693-0.998-1.764-2.199c-2.754-15.881,2.415-30.74,2.199-47.964c5.34,0.825,10.031,2.303,14.975,3.526
    c0.438-4.852,3.045-7.522,3.076-12.771c-4.781-2.7-12.1-2.863-17.6-4.841c0.416-3.567-1.103-8.827-0.887-13.638
    c2.708-2.424,5.551-5.064,9.691-4.851c-0.031-3.108-1.367-8.572-3.967-10.559c-3.369,1.172-4.981,4.118-8.365,5.28
    c-1.857-5.189-0.44-13.648-0.879-20.243c3.06-4.025,6.177-7.5,9.683-11.006c3.18-3.179,8.408-6.635,8.359-12.322
    c-1.725-1.07-3.539-2.039-6.605-1.763c-5.729-9.01-15.268-18.663-29.048-15.839c-3.242,0.663-7.889,2.904-10.56,4.84
    c-12.128,8.797-11.038,28.355-2.638,39.607c0.09,1.376-0.295,3.23,0.438,3.964c2.261,1.255,7.673-0.632,9.245,1.314
    c0.744,5.005-3.038,5.475-4.403,8.368c1.02,2.519,4.32-0.08,4.84,1.325c0.093,1.693,0.021,3.242-0.437,4.404
    c-0.896-0.326-1.745-1.385-2.642-0.448c-1.038,1.039,0.072,2.161,0,3.526c-3.301,1.386-5.543,3.843-8.367,5.719
    c0.071,4.351,1.721,12.138,2.21,18.927c0.184,2.629-0.467,5.636,0,7.481c1.051,4.218,5.556,2.944,8.359,4.402
    c0.754,2.957-1.12,3.281-1.326,5.279c0.429,6.022,0.225,12.191,0.449,18.489c0.03,1.02,0.786,1.958,0.877,3.08
    c0.233,2.832-0.672,6.338-0.44,9.232c0.091,1.201,0.827,2.037,0.879,3.098c0.143,3.201-0.745,6.299-0.439,9.234
    c0.103,1.064,0.826,2.059,0.876,3.078c0.152,2.953-0.725,6.563-0.437,9.682c0.101,1.184,0.998,2.344,0.876,3.527
    c-0.654,6.504-8.34,6.113-9.674,11.885c1.835,3.445,9.867,0.691,12.76,3.078c-0.427,10.906,1.989,22.729-0.447,31.697
    c-2.955,0.367-5.554,2.527-8.794,3.076c-1.021,0.166-2.438-0.283-3.52,0c-2.017,0.531-3.677,2.08-5.728,2.631
    c-2.119,0.592-4.503,0.225-6.604,0.877c-0.632,0.201-0.609,0.916-1.324,1.326c-2.365,1.385-5.077,0.549-6.158,2.646
    c42.533,3.285,92.586,0.021,134.241,0.881C172.123,225.144,160.842,225.694,152.393,224.696 M92.536,151.19
    c-0.205,0.879-0.827,0.346-0.44-1.326C92.381,148.62,92.605,150.884,92.536,151.19 M93.412,77.319
    c1.578,3.414,1.518,8.438,1.764,13.28h-3.08c0.092-4.393,0-8.245-0.439-11.926C92.24,78.236,93.297,78.226,93.412,77.319
     M94.736,104.97c-0.867,12.321-1.102,24.533-3.955,35.64c-1.488-1.08-1.52-3.26-1.764-4.828c-1.354-8.531-1.457-18.714-2.64-29.935
    C89.437,106.031,91.598,103.278,94.736,104.97 M90.25,67.28h0.97c0.121,0.875-0.418,0.875-0.439,1.313H90.25V67.28z M89.895,89.121
    c-6.135,4.587-7.144-8.622-0.438-5.718c-0.287-1.478-2.11-1.406-3.965-1.314c-0.031-1.509,1.63-1.305,3.079-1.327
    C90.597,82.833,90.087,86.645,89.895,89.121 M82.414,61.398c1.152-5.953,0.845-9.162,5.718-10.12
    c1.375,6.921-1.478,13.443,0.886,18.479c-1.497,0.998-2.956,2.037-5.29,2.201C80.019,70.489,81.384,66.759,82.414,61.398
     M65.252,105.409c-2.845-1.846-1.5-9.54-1.766-14.962c-0.232-5.005-0.752-10.426,3.964-10.121c1.683,0.296,0.777,2.619,0.877,3.966
    c0.112,1.396,0.378,2.567,0.439,3.954C69.093,95.48,70.713,105.939,65.252,105.409 M71.854,185.946
    c-3.263,0.629-3.679-1.592-6.166-1.752c0.377-3.139,3.709-3.344,5.279-5.281C72.761,179.772,71.447,183.724,71.854,185.946
     M74.046,183.315c-0.672-0.609-1.244-2.283-0.438-3.076C74.595,180.423,73.791,182.399,74.046,183.315 M77.573,189.024
    c0.712-0.123,0.751,0.432,1.325,0.449c0,2.508-0.315,4.688-0.886,6.605c2.453,5.686-0.174,15.857,1.761,22.891
    C76.94,211.081,78.226,199.093,77.573,189.024"/>
<g>
    <path d="M122.633,31.524c0.514,0.413,0.885,0.918,1.109,1.517c0.221,0.599,0.273,1.233,0.152,1.901
        c-0.125,0.682-0.396,1.263-0.818,1.745c-0.418,0.482-0.943,0.829-1.572,1.039c-0.629,0.211-1.311,0.25-2.043,0.117
        c-0.734-0.133-1.357-0.41-1.873-0.829c-0.516-0.418-0.885-0.928-1.107-1.526s-0.273-1.239-0.148-1.92
        c0.119-0.669,0.393-1.244,0.811-1.726c0.42-0.481,0.945-0.825,1.572-1.029c0.629-0.204,1.311-0.24,2.045-0.107
        C121.49,30.838,122.117,31.111,122.633,31.524z"/>
    <path d="M128.197,30.445c-0.787-1.223-0.941-2.537-0.471-3.941c0.328-0.981,0.908-1.79,1.736-2.424
        c0.828-0.636,1.852-1.022,3.068-1.159c1.219-0.137,2.551,0.038,3.996,0.523c1.508,0.506,2.752,1.177,3.73,2.011
        c0.977,0.834,1.631,1.769,1.961,2.805c0.33,1.036,0.309,2.106-0.061,3.211l-5.561-1.868c0.213-0.64,0.227-1.145,0.033-1.514
        c-0.193-0.369-0.65-0.675-1.371-0.918c-0.477-0.16-0.926-0.179-1.354-0.057c-0.424,0.121-0.707,0.394-0.852,0.817
        c-0.271,0.816,0.428,1.66,2.098,2.531c1.195,0.619,2.201,1.276,3.018,1.97c0.82,0.695,1.406,1.514,1.762,2.461
        c0.354,0.947,0.33,2.014-0.068,3.201c-0.332,0.991-0.938,1.779-1.811,2.365c-0.875,0.585-1.951,0.916-3.229,0.993
        c-1.279,0.076-2.66-0.136-4.148-0.634c-1.549-0.52-2.795-1.252-3.736-2.194s-1.563-1.955-1.857-3.037
        c-0.297-1.082-0.293-2.083,0.018-3.002l5.156,1.732c-0.197,0.658-0.135,1.224,0.188,1.7c0.324,0.477,0.871,0.844,1.646,1.104
        c0.629,0.211,1.152,0.252,1.57,0.122c0.416-0.129,0.695-0.401,0.832-0.814c0.086-0.248,0.061-0.489-0.074-0.723
        c-0.135-0.235-0.4-0.502-0.799-0.803s-0.996-0.688-1.791-1.162C130.189,32.767,128.98,31.667,128.197,30.445z"/>
    <path d="M160.439,35.163l-8.604,15.445l-4.781-2.664l0.791-1.787c-0.842,0.368-1.701,0.531-2.584,0.489
        c-0.881-0.042-1.742-0.298-2.59-0.77c-1.607-0.896-2.615-2.067-3.018-3.514c-0.406-1.447-0.061-3.15,1.033-5.11l5.566-9.992
        l5.123,2.854l-5.582,10.021c-0.275,0.495-0.342,0.97-0.195,1.425s0.518,0.85,1.117,1.184c1.018,0.567,1.908,0.626,2.67,0.178
        l5.916-10.62L160.439,35.163z"/>
    <path d="M172.926,46.326c0.311,1.226,0.238,2.521-0.223,3.886c-0.461,1.364-1.273,2.738-2.441,4.119l-0.221,0.262
        c-1.123,1.332-2.328,2.349-3.613,3.053c-1.289,0.704-2.574,1.021-3.863,0.952c-1.289-0.069-2.488-0.571-3.596-1.505
        c-1.189-1.005-1.787-2.288-1.797-3.848l-5.322,6.305l-4.471-3.774l15.791-18.702l4.184,3.531l-0.896,1.34
        c1.609-0.322,3.051,0.052,4.314,1.12C171.895,44.013,172.613,45.1,172.926,46.326z M165.793,50.557
        c0.877-1.04,1.41-1.961,1.592-2.761c0.184-0.8-0.061-1.485-0.736-2.054c-0.465-0.394-0.91-0.642-1.338-0.745
        c-0.426-0.103-0.846-0.068-1.266,0.106l-4.154,4.919c-0.197,0.929,0.15,1.773,1.051,2.531c0.682,0.577,1.406,0.69,2.172,0.339
        c0.768-0.351,1.586-1.042,2.457-2.074L165.793,50.557z"/>
    <path d="M185.492,60.692c0.072,1.263-0.246,2.52-0.959,3.772s-1.773,2.445-3.182,3.579l-0.268,0.215
        c-1.357,1.093-2.734,1.863-4.131,2.309c-1.393,0.446-2.719,0.513-3.971,0.2c-1.252-0.313-2.334-1.034-3.242-2.163
        c-0.977-1.213-1.32-2.586-1.029-4.12l-6.428,5.176l-3.668-4.555l19.063-15.354l3.434,4.263l-1.135,1.144
        c1.643-0.008,2.984,0.631,4.021,1.921C184.922,58.225,185.418,59.43,185.492,60.692z M177.684,63.488
        c1.059-0.854,1.756-1.656,2.09-2.407c0.332-0.75,0.223-1.469-0.332-2.156c-0.383-0.476-0.773-0.804-1.172-0.986
        c-0.398-0.183-0.818-0.228-1.264-0.136l-5.012,4.038c-0.375,0.874-0.193,1.769,0.547,2.686c0.559,0.695,1.25,0.944,2.068,0.746
        c0.82-0.198,1.754-0.721,2.807-1.568L177.684,63.488z"/>
    <path d="M200.027,75.127c-0.111,1.944-0.727,3.736-1.85,5.375c-1.121,1.64-2.658,2.956-4.609,3.948l-0.803,0.407
        c-1.951,0.993-3.916,1.46-5.895,1.403c-1.979-0.058-3.779-0.607-5.41-1.649c-1.629-1.041-2.914-2.489-3.857-4.343l-2.424-4.763
        l-1.176-2.316l21.207-10.781l2.762,5.433l0.77,1.515C199.711,71.259,200.139,73.183,200.027,75.127z M190.768,78.872
        c1.904-0.967,3.156-2.068,3.756-3.302c0.602-1.234,0.541-2.56-0.18-3.978l-0.77-1.515l-12.424,6.315l0.836,1.646
        c0.686,1.35,1.699,2.142,3.041,2.377s2.979-0.14,4.91-1.122L190.768,78.872z"/>
    <path d="M195.473,86.372c1.484,0.286,2.766,0.952,3.84,2.001c1.076,1.049,1.85,2.452,2.318,4.209c0.475,1.778,0.51,3.39,0.1,4.836
        c-0.406,1.445-1.182,2.661-2.322,3.648c-1.139,0.987-2.557,1.707-4.252,2.16l-0.332,0.088c-1.691,0.453-3.277,0.536-4.754,0.248
        c-1.475-0.288-2.748-0.954-3.822-1.997c-1.074-1.044-1.848-2.45-2.32-4.217c-0.471-1.768-0.504-3.377-0.098-4.828
        s1.178-2.668,2.313-3.654c1.135-0.986,2.549-1.705,4.244-2.158l0.332-0.088C192.402,86.169,193.986,86.087,195.473,86.372z
         M189.012,93.748c-0.607,0.574-0.775,1.366-0.504,2.376c0.26,0.979,0.801,1.568,1.619,1.765c0.82,0.198,1.883,0.124,3.188-0.226
        l0.332-0.088c1.283-0.343,2.24-0.807,2.867-1.392s0.809-1.377,0.539-2.377c-0.26-0.979-0.813-1.564-1.652-1.757
        c-0.842-0.192-1.898-0.119-3.172,0.222l-0.332,0.088C190.58,92.711,189.621,93.173,189.012,93.748z"/>
    <path d="M205.023,119.967l-16.875,1.123c-1.619,0.108-3.033-0.18-4.242-0.864c-1.207-0.684-2.16-1.696-2.854-3.037
        c-0.695-1.34-1.105-2.934-1.227-4.781c-0.084-1.239,0.063-2.477,0.439-3.714s0.922-2.234,1.633-2.991l3.781,2.156
        c-1.012,1.203-1.467,2.559-1.367,4.07c0.076,1.141,0.422,1.992,1.037,2.551c0.617,0.56,1.451,0.805,2.506,0.734l0.553-0.037
        c-1.23-0.944-1.896-2.193-2-3.748c-0.098-1.467,0.201-2.772,0.895-3.916c0.691-1.143,1.697-2.053,3.01-2.73
        c1.314-0.677,2.83-1.073,4.547-1.187l0.344-0.023c1.783-0.119,3.375,0.07,4.779,0.566c1.402,0.497,2.516,1.268,3.34,2.316
        c0.82,1.048,1.283,2.311,1.381,3.789c0.119,1.815-0.395,3.258-1.547,4.328l1.514,0.096L205.023,119.967z M192.34,114.916
        l6.928-0.46c0.631-0.533,0.91-1.338,0.838-2.414c-0.061-0.913-0.506-1.602-1.332-2.065c-0.828-0.463-1.891-0.652-3.182-0.566
        l-0.342,0.023c-1.262,0.084-2.266,0.402-3.016,0.955c-0.75,0.551-1.094,1.29-1.033,2.213
        C191.273,113.688,191.652,114.459,192.34,114.916z"/>
    <path d="M195.799,123.449c1.037-1.019,2.289-1.441,3.762-1.267c1.027,0.121,1.938,0.521,2.729,1.202
        c0.793,0.68,1.381,1.603,1.764,2.767c0.385,1.164,0.486,2.503,0.309,4.018c-0.186,1.58-0.586,2.934-1.203,4.061
        c-0.617,1.13-1.396,1.961-2.342,2.497c-0.947,0.535-1.998,0.736-3.156,0.6l0.688-5.826c0.668,0.079,1.166-0.014,1.488-0.277
        s0.527-0.774,0.617-1.532c0.059-0.497-0.016-0.942-0.223-1.334c-0.205-0.392-0.529-0.614-0.975-0.666
        c-0.854-0.101-1.535,0.757-2.047,2.572c-0.359,1.296-0.799,2.415-1.309,3.358c-0.512,0.944-1.195,1.686-2.047,2.226
        c-0.854,0.541-1.904,0.74-3.148,0.592c-1.037-0.123-1.932-0.551-2.686-1.287c-0.752-0.736-1.297-1.722-1.635-2.957
        c-0.336-1.235-0.412-2.632-0.229-4.19c0.191-1.623,0.652-2.991,1.381-4.107c0.729-1.115,1.594-1.929,2.59-2.441
        c0.998-0.513,1.979-0.713,2.941-0.599l-0.635,5.403c-0.686-0.059-1.227,0.119-1.627,0.532s-0.646,1.026-0.742,1.837
        c-0.078,0.66-0.01,1.181,0.203,1.563c0.211,0.381,0.533,0.597,0.967,0.648c0.26,0.03,0.49-0.043,0.693-0.223
        s0.41-0.495,0.621-0.947c0.213-0.452,0.469-1.115,0.768-1.991C193.936,125.878,194.764,124.468,195.799,123.449z"/>
</g>
<path d="M105.041,200.849c-45.31,0-82.171-36.859-82.171-82.169s36.862-82.172,82.171-82.172c1.715,0,3.408,0.07,5.098,0.174
    l2.512-17.733c-2.512-0.19-5.051-0.288-7.609-0.288c-55.15,0-100.019,44.868-100.019,100.019
    c0,55.15,44.868,100.017,100.019,100.017c46.598,0,85.854-32.031,96.908-75.23l-17.881-2.336
    C174.273,175.556,142.566,200.849,105.041,200.849z"/>
</svg>